<?xml version="1.0" encoding="utf-8"?>
<svg xmlns="http://www.w3.org/2000/svg" xmlns:xlink="http://www.w3.org/1999/xlink">
  <symbol id="pinterest" xmlns="http://www.w3.org/2000/svg" viewBox="0 0 512 512">
    <path d="M232.2,336.4c-1.5,4.1-1.9,8.1-2.8,11.9c-3.9,15.7-6.9,31.6-10.7,47.3c-2.9,11.9-6,23.9-10.2,35.5   c-3.6,10.2-8.5,20.1-13.4,29.8c-7.6,15.3-16.9,29.7-27,43.4c-1.7,2.3-2.6,6.3-6.1,5.4c-4.2-1.1-3.5-5.4-3.9-8.8   c-2.9-21.7-3.7-43.4-3-65.2c0.4-11.4,0.8-23,3.6-34.1c2.9-11.3,5-22.8,7.7-34.1c1.9-8,3.7-16.2,4.9-24.4c1.1-7.7,4.1-15.1,5.3-22.7   c1.6-10.3,4.5-20.3,6.6-30.5c1.9-9.2,4.3-18.4,6.2-27.6c1.3-6.3,2.6-12.5,4.3-18.7c0.8-3,0.2-6.2-1.3-9.5c-4-8.8-4.9-18.5-6.3-27.9   c-1.8-12.1-0.8-24.3,2.1-36.1c4.5-18.1,11.7-34.7,28.4-45.5c18.5-11.9,44.6-6.5,52.8,15.2c5.2,14,4.1,27.8,2.1,42   c-1.7,12.3-5.4,24.1-8.8,35.9c-2.7,9.1-5.6,18.2-7.9,27.4c-1.8,7.5-5.2,14.9-4.8,22.9c0.2,4.4-0.8,8.7-0.5,13.3   c1.1,17.9,11.3,29.2,26.3,36c8.4,3.8,18.1,4,27.9,1.5c10.3-2.6,18.8-7.4,26.8-13.7c9.1-7.2,15.3-16.8,21.3-26.4   c6.2-9.9,10.3-21,13.8-32.1c4.5-14.6,7.6-29.7,9.7-45c1.6-12,1.6-23.9,1.9-35.8c0.5-21.9-5.1-42.4-15.6-61.2   c-6.5-11.7-16.2-20.9-27.3-29c-9.3-6.7-19.7-10.2-29.8-14.5c-3.4-1.5-7.3-1.7-10.9-2.6c-11.8-2.9-24-2.7-36-2.2   c-14.8,0.6-29.1,3.8-42.8,9.4c-14.5,6-27.5,14.5-38.7,25.4C164.4,102,155.2,115,148,129.5c-5.6,11.4-9.7,23.6-11.6,35.9   c-2.3,15.3-4.1,30.7-1.2,46.5c1.8,10.1,5,19.6,9.1,28.8c1.9,4.3,4.9,8.2,8.1,11.7c3.7,4.1,4.3,8.6,3.3,13.4   c-1.7,8.4-3.8,16.8-5.9,25.1c-1.6,6.4-8.9,9.3-15.1,6.2c-18.8-9.7-32.2-24.4-40.6-43.8C86.4,235.4,82,216.7,81.9,197   c-0.1-13.8-0.9-27.7,2.3-41.2c2.5-10.9,5.4-21.6,9.4-32.1c5.1-13.4,11.9-25.6,19.7-37.5c11.6-17.8,26.6-32.5,43.8-44.9   c13.1-9.5,27.4-17.3,42.5-22.7c9.5-3.4,19.3-5.9,29.3-8c17.9-3.6,35.8-4.9,53.8-4.3c9.7,0.3,19.2,2.7,28.8,4.1   c13,2,24.8,6.9,36.6,12c7.9,3.4,15.4,7.9,22.6,12.8c11.4,7.7,21.6,16.8,30.7,27c10.8,12,19.2,25.6,26.1,40.3   c3.4,7.1,5.7,14.6,8.9,21.8c1.4,3.1,1.8,6.9,2.3,10.4c0.9,5.8,1.6,11.8,2.8,17.4c2.5,11.8,1.6,23.5,1.2,35.1   c-0.3,9.9-1.1,19.9-3.4,29.7c-1.1,4.6-0.8,9.3-2,14.1c-2,7.7-3.8,15.5-5.9,23.2c-3.2,12-7.9,23.4-13.4,34.4   c-11.8,23.8-27.4,44.6-49.7,59.9c-7.9,5.4-16.1,10.2-25,13.7c-19.6,7.5-40.1,10.8-60.8,6.7c-19.1-3.8-35.5-13.1-47.3-29.4   C234.5,338.2,233.4,337.5,232.2,336.4z"></path>
  </symbol>
  <symbol id="twitter" xmlns="http://www.w3.org/2000/svg" viewBox="0 0 512 512">
    <path d="M3.5,421.4c56,5.1,106.1-8.9,151.5-42.9c-7-1.6-13.4-1.6-19.5-3.1c-35.7-8.5-60.4-30-74.9-63.5   c-0.7-1.7-2.5-3.8-0.9-5.5c1.2-1.3,3.5-0.2,5.2,0c12.6,1.3,25.2,0.9,37.6-2c0.2-2.2-1.4-2-2.6-2.4c-30.7-8.2-53-26.5-67.4-54.8   c-6.6-13-10.2-26.6-10.6-41.2c-0.2-5.7,0.1-5.8,5.4-3.3c12.6,6,25.8,9.4,40.9,10.1c-6.9-5.6-13.1-10.5-18.4-16.4   c-16.1-17.9-25.1-38.8-27-62.9c-1.5-19.6,2.6-37.9,11.1-55.5c1.9-3.9,3.6-3.6,6-0.7C56.6,97.7,76.1,115,97.6,130   c16,11.2,33,20.5,50.9,28.4c23.6,10.3,48.1,17.2,73.5,21.3c8,1.3,16.2,1.6,24.3,2.4c4.1,0.4,5.2-0.8,4.4-5   c-4.1-21.6-1.3-42.6,8.1-62.3c16.1-33.6,43.1-54,79.8-59.4c32.6-4.8,61.9,4.5,86.2,27.4c3.7,3.5,7,4.4,12,3.1   c19.6-5,38.3-12.1,55.9-22.1c0.5-0.3,1.1-0.4,2.9-1.1c-8.2,24.1-22.7,41.9-43,55.5c4.7,0.9,18.6-1.6,28.2-4.6   c9.2-2.9,18.4-5.5,27.2-9.4c1.2,1.3,0.1,2-0.4,2.7c-11.7,16.5-25.1,31.4-41.1,43.8c-2.2,1.7-4.3,3.6-6.6,5.2   c-1.7,1.2-1.8,2.7-1.7,4.4c0.7,18.2-0.6,36.3-3.2,54.2c-2.7,18.3-7.3,36.1-13.4,53.6c-5,14.3-10.9,28.2-17.9,41.7   c-17.3,33.2-39.8,62.4-67.9,87.3c-29.9,26.4-63.9,45.4-101.9,57.2c-23.7,7.4-48,11.7-72.9,13c-19.2,1-38.3,0.7-57.3-1.7   c-27.2-3.3-53.4-10.7-78.6-21.5c-12.9-5.5-25.1-12.1-37.3-19C6.1,424.4,4.4,423.6,3.5,421.4z"></path>
  </symbol>
  <symbol id="dribble" xmlns="http://www.w3.org/2000/svg" viewBox="0 0 19 19">
    <path d="M13.9195 16.3383C13.8415 15.8753 13.4315 13.6183 12.4235 10.8493C14.9045 10.4523 17.0545 11.1333 17.2135 11.1853C17.0462 12.2239 16.6676 13.2171 16.101 14.1034C15.5344 14.9898 14.7919 15.7504 13.9195 16.3383ZM9.62454 17.6513C7.83652 17.6539 6.104 17.0305 4.72754 15.8893C4.82954 15.9713 4.90054 16.0233 4.90054 16.0233C4.90054 16.0233 6.37354 12.8103 10.9325 11.2223C10.9485 11.2153 10.9665 11.2123 10.9835 11.2063C12.0655 14.0163 12.5115 16.3693 12.6255 17.0413C11.6767 17.4443 10.6564 17.6518 9.62554 17.6513H9.62454ZM1.93854 9.9643C1.93854 9.8823 1.94254 9.8023 1.94454 9.7213C2.08054 9.7243 5.87854 9.8113 9.83554 8.6263C10.0555 9.0563 10.2655 9.4963 10.4595 9.9333C10.3576 9.96075 10.2565 9.99143 10.1565 10.0253C6.00854 11.3653 3.90454 15.0963 3.90454 15.0963L3.90754 15.1003C2.63727 13.6915 1.93525 11.8612 1.93754 9.9643H1.93854ZM6.34454 3.0143C7.38031 4.43434 8.33355 5.91278 9.19954 7.4423C5.50954 8.4223 2.30554 8.3843 2.10354 8.3803C2.3484 7.21925 2.85869 6.13064 3.59445 5.1997C4.33021 4.26877 5.27148 3.52078 6.34454 3.0143ZM7.78354 2.5013L7.78254 2.5043L7.75854 2.5083L7.78354 2.5023V2.5013ZM14.7005 4.1973C14.6815 4.2263 13.5875 5.8923 10.6855 6.9793C9.8317 5.42104 8.87247 3.92289 7.81454 2.4953C9.01478 2.20197 10.2682 2.20357 11.4677 2.49996C12.6671 2.79635 13.7771 3.37871 14.7025 4.1973H14.7005ZM17.3085 9.8873C17.1985 9.8633 14.5965 9.3033 11.9555 9.6353L11.7895 9.2403C11.6291 8.86384 11.4587 8.49171 11.2785 8.1243C14.3135 6.8843 15.5455 5.1043 15.5605 5.0833C16.6764 6.43706 17.2935 8.13299 17.3085 9.8873ZM18.4425 8.1533C18.3231 7.57342 18.1469 7.00669 17.9165 6.4613C17.237 4.85358 16.1042 3.47835 14.6565 2.5033C14.1753 2.17746 13.6636 1.89916 13.1285 1.6723C12.0195 1.20458 10.8281 0.963623 9.62454 0.963623C8.42095 0.963623 7.22954 1.20458 6.12054 1.6723C4.5137 2.35332 3.13884 3.48573 2.16254 4.9323C1.15748 6.41774 0.621673 8.17079 0.624539 9.9643C0.621537 11.1678 0.862381 12.3594 1.33254 13.4673C1.55854 14.0033 1.83654 14.5163 2.16254 14.9973C3.13873 16.4437 4.51365 17.5758 6.12054 18.2563C6.66525 18.4871 7.23176 18.6627 7.81154 18.7803C9.59562 19.1497 11.4499 18.967 13.1275 18.2563C13.6629 18.0298 14.175 17.7519 14.6565 17.4263C15.1345 17.1033 15.5805 16.7363 15.9885 16.3293C17.0432 15.2767 17.8195 13.9783 18.2477 12.5511C18.6759 11.1239 18.7425 9.61264 18.4415 8.1533H18.4425Z"></path>
  </symbol>
  <symbol id="facebook" xmlns="http://www.w3.org/2000/svg" viewBox="0 0 512 512">
    <path d="M308.3,508.5c-2.5,0.1-4.1,0.3-5.7,0.3c-34.2,0-68.3-0.1-102.5,0.1c-4.8,0-6.1-1.3-6.1-6.1c0.1-79.6,0.1-159.3,0.1-238.9   c0-2.1,0-4.2,0-6.9c-18.6,0-36.7,0-55.1,0c0-28.4,0-56.3,0-85c1.9,0,3.7,0,5.4,0c15,0,30-0.1,45,0.1c3.8,0,4.8-1.1,4.8-4.8   c-0.2-22.3-0.2-44.7,0-67c0.1-15.6,2.6-30.8,9.8-44.9c10.3-19.9,26.6-32.8,47.2-40.8c16.8-6.6,34.5-9,52.3-9.3   c29-0.4,58-0.2,87-0.3c2.7,0,4.9-0.1,4.9,3.7c-0.1,27.5-0.1,55-0.1,82.5c0,0.3-0.1,0.6-0.5,1.9c-1.7,0-3.6,0-5.5,0   c-18,0-36-0.1-54,0c-10.4,0-18.8,4.2-24.1,13.3c-1.6,2.7-2.6,6.2-2.6,9.4c-0.3,17,0,34-0.2,51c0,4,1.2,5.1,5.1,5.1   c25-0.2,50-0.1,75-0.1c2,0,3.9,0,7.3,0c-3.5,28.6-6.9,56.6-10.4,84.9c-26,0-51.3,0-77.1,0C308.3,340.8,308.3,424.4,308.3,508.5z"></path>
  </symbol>
  <symbol id="gmail" xmlns="http://www.w3.org/2000/svg" viewBox="0 0 511.626 511.627">
    <path d="M498.208,68.235c-8.945-8.947-19.701-13.418-32.261-13.418H45.682c-12.562,0-23.318,4.471-32.264,13.418
		C4.471,77.18,0,87.935,0,100.499v310.633c0,12.566,4.471,23.312,13.418,32.257c8.945,8.953,19.701,13.422,32.264,13.422h420.266
		c12.56,0,23.315-4.469,32.261-13.422c8.949-8.945,13.418-19.697,13.418-32.257V100.499
		C511.626,87.935,507.158,77.18,498.208,68.235z M475.078,411.125c0,2.475-0.903,4.616-2.714,6.424
		c-1.81,1.81-3.949,2.706-6.42,2.706H45.679c-2.474,0-4.616-0.896-6.423-2.706c-1.809-1.808-2.712-3.949-2.712-6.424V191.858
		c6.09,6.852,12.657,13.134,19.7,18.843c51.012,39.209,91.553,71.374,121.627,96.5c9.707,8.186,17.607,14.561,23.697,19.13
		c6.09,4.571,14.322,9.185,24.694,13.846c10.373,4.668,20.129,6.991,29.265,6.991h0.287h0.284c9.134,0,18.894-2.323,29.263-6.991
		c10.376-4.661,18.613-9.274,24.701-13.846c6.089-4.569,13.99-10.944,23.698-19.13c30.074-25.126,70.61-57.291,121.624-96.5
		c7.043-5.708,13.613-11.991,19.694-18.843V411.125L475.078,411.125z M475.078,107.92v3.14c0,11.229-4.421,23.745-13.271,37.543
		c-8.851,13.798-18.419,24.792-28.691,32.974c-36.74,28.936-74.897,59.101-114.495,90.506c-1.14,0.951-4.474,3.757-9.996,8.418
		c-5.514,4.668-9.894,8.241-13.131,10.712c-3.241,2.478-7.471,5.475-12.703,8.993c-5.236,3.518-10.041,6.14-14.418,7.851
		c-4.377,1.707-8.47,2.562-12.275,2.562h-0.284h-0.287c-3.806,0-7.895-0.855-12.275-2.562c-4.377-1.711-9.185-4.333-14.417-7.851
		c-5.231-3.519-9.467-6.516-12.703-8.993c-3.234-2.471-7.614-6.044-13.132-10.712c-5.52-4.661-8.854-7.467-9.995-8.418
		c-39.589-31.406-77.75-61.57-114.487-90.506c-27.981-22.076-41.969-49.106-41.969-81.083c0-2.472,0.903-4.615,2.712-6.421
		c1.809-1.809,3.949-2.714,6.423-2.714h420.266c1.52,0.855,2.854,1.093,3.997,0.715c1.143-0.385,1.998,0.331,2.566,2.138
		c0.571,1.809,1.095,2.664,1.57,2.57c0.477-0.096,0.764,1.093,0.859,3.571c0.089,2.473,0.137,3.718,0.137,3.718V107.92
		L475.078,107.92z"/>
  </symbol>
</svg>
